<svg width="24" height="16" viewBox="0 0 24 16" fill="none" xmlns="http://www.w3.org/2000/svg">
<g clip-path="url(#clip0_2_33)">
<path d="M15.3048 0.305768C15.1015 0.50864 14.9865 0.783609 14.9849 1.07082C14.9834 1.35803 15.0954 1.63422 15.2965 1.83928L20.365 6.91387H1.07533C0.787935 6.91387 0.512309 7.02799 0.309088 7.23113C0.105867 7.43426 -0.00830078 7.70977 -0.00830078 7.99705C-0.00830078 8.28433 0.105867 8.55984 0.309088 8.76297C0.512309 8.96611 0.787935 9.08023 1.07533 9.08023H20.3567L15.2882 14.1596C15.0888 14.3655 14.9779 14.6414 14.9795 14.928C14.981 15.2147 15.0948 15.4893 15.2965 15.6931C15.3973 15.7927 15.5166 15.8715 15.6478 15.925C15.779 15.9785 15.9195 16.0056 16.0612 16.0048C16.2029 16.0041 16.343 15.9754 16.4736 15.9205C16.6043 15.8656 16.7228 15.7855 16.8224 15.6848L23.6917 8.76855C23.7856 8.6683 23.8617 8.55291 23.917 8.42724C23.9733 8.29545 24.0016 8.15338 24 8.01009C24.0002 7.72674 23.8896 7.45454 23.6917 7.25162L16.8224 0.335395C16.7251 0.233106 16.6085 0.151126 16.4794 0.0942067C16.3502 0.0372872 16.211 0.0065602 16.0698 0.00380447C15.9287 0.00104874 15.7884 0.0263196 15.6571 0.0781533C15.5257 0.129987 15.406 0.207353 15.3048 0.305768Z" fill="#ffffff"/>
</g>
<defs>
<clipPath id="clip0_2_33">
<rect width="24" height="16" fill="white"/>
</clipPath>
</defs>
</svg>
