<svg width="34" height="30" viewBox="0 0 34 30" fill="none" xmlns="http://www.w3.org/2000/svg">
<path d="M31.519 2.92024C30.6423 1.92488 29.5477 1.14545 28.3203 0.642694C27.0929 0.139943 25.766 -0.0725352 24.443 0.0218236C23.12 0.116182 21.8367 0.514828 20.693 1.18668C19.5494 1.85854 18.5765 2.78545 17.85 3.89514C17.5387 4.33037 17.2548 4.78456 17 5.25507C16.7452 4.78455 16.4613 4.33036 16.15 3.89514C15.4235 2.78545 14.4506 1.85854 13.307 1.18668C12.1633 0.514828 10.88 0.116182 9.55702 0.0218236C8.23402 -0.0725352 6.9071 0.139943 5.67972 0.642694C4.45234 1.14545 3.35766 1.92488 2.48102 2.92024C0.851383 4.79966 -0.0312223 7.21215 0.000844034 9.6995C0.000844034 12.5044 1.10579 15.1078 3.47632 17.9007C6.1652 20.8033 9.07357 23.4946 12.1756 25.9507C13.4914 27.0607 14.8522 28.209 16.3005 29.4644L16.3438 29.5018C16.5262 29.6593 16.7591 29.746 17 29.746C17.2409 29.746 17.4738 29.6593 17.6562 29.5018L17.6995 29.4644C19.1444 28.209 20.5044 27.0607 21.8244 25.9507C24.9264 23.4949 27.8348 20.8039 30.5237 17.9016C32.8942 15.1078 33.9992 12.5018 33.9992 9.6995C34.0312 7.21215 33.1486 4.79966 31.519 2.92024ZM20.5324 24.4463C19.3986 25.4033 18.2307 26.3884 17 27.4483C15.7693 26.3884 14.6023 25.4033 13.4676 24.4463C6.55742 18.6147 1.99315 14.7619 1.99315 9.69696C1.96125 7.69081 2.66686 5.74275 3.9761 4.22238C4.6086 3.50702 5.38718 2.93564 6.2593 2.5468C7.13142 2.15795 8.0768 1.96068 9.03164 1.96829C10.1282 1.99224 11.2023 2.28395 12.1603 2.818C13.1184 3.35206 13.9313 4.11226 14.5283 5.03239C15.1799 5.95632 15.6936 6.97018 16.0531 8.04209C16.1197 8.24051 16.2469 8.41301 16.4168 8.53522C16.5867 8.65743 16.7907 8.72318 17 8.72318C17.2093 8.72318 17.4133 8.65743 17.5832 8.53522C17.7531 8.41301 17.8803 8.24051 17.9469 8.04209C18.307 6.97255 18.8207 5.96102 19.4717 5.03918C20.0227 4.17242 20.768 3.44594 21.6486 2.91733C22.5292 2.38873 23.5209 2.07255 24.5449 1.99386C25.569 1.91517 26.5973 2.07613 27.5483 2.46398C28.4994 2.85184 29.3469 3.45592 30.0239 4.22833C31.3331 5.7487 32.0387 7.69676 32.0069 9.7029C32.0069 14.7644 27.4426 18.6173 20.5324 24.4463Z" fill="#FF2C2C"/>
</svg>
