<svg width="35" height="35" viewBox="0 0 35 35" fill="none" xmlns="http://www.w3.org/2000/svg">
<path d="M7.18806 27.812C9.22758 29.8515 11.8261 31.2404 14.655 31.8031C17.4839 32.3658 20.4161 32.077 23.0808 30.9733C25.7456 29.8695 28.0232 28.0003 29.6256 25.6021C31.2281 23.2039 32.0834 20.3843 32.0834 17.5C32.0834 14.6157 31.2281 11.7962 29.6256 9.39794C28.0232 6.99972 25.7456 5.13054 23.0808 4.02676C20.4161 2.92298 17.4839 2.63419 14.655 3.19689C11.8261 3.75959 9.22758 5.14851 7.18807 7.18803" stroke="#0F0F0F" stroke-width="1.5"/>
<path d="M21.875 17.5L22.4607 17.0315L22.8355 17.5L22.4607 17.9685L21.875 17.5ZM4.375 18.25C3.96079 18.25 3.625 17.9142 3.625 17.5C3.625 17.0858 3.96079 16.75 4.375 16.75V18.25ZM16.6273 9.73981L22.4607 17.0315L21.2893 17.9685L15.456 10.6768L16.6273 9.73981ZM22.4607 17.9685L16.6273 25.2602L15.456 24.3231L21.2893 17.0315L22.4607 17.9685ZM21.875 18.25H4.375V16.75H21.875V18.25Z" fill="#0F0F0F"/>
</svg>
