<svg width="40" height="35" viewBox="0 0 40 35" fill="none" xmlns="http://www.w3.org/2000/svg">
<g clip-path="url(#clip0_74_47)">
<path d="M32.1503 23.4232C32.3346 24.7464 32.2565 26.093 31.9206 27.386C31.5847 28.6789 30.9975 29.893 30.1925 30.9587C29.3876 32.0244 28.3807 32.9209 27.2295 33.5968C26.0782 34.2728 24.8051 34.7151 23.483 34.8983C22.8042 34.9942 22.1175 35.0219 21.4333 34.9807C10.7771 34.4328 -0.578305 23.9637 0.022612 14.4996C4.12947 16.5681 8.76972 17.3313 13.322 16.6872C15.0014 16.4565 16.649 16.035 18.233 15.4307C19.0337 15.162 19.8491 14.9391 20.6751 14.7629C21.9968 14.5768 23.3422 14.6532 24.6343 14.9878C25.9265 15.3223 27.1401 15.9085 28.2058 16.7128C29.2715 17.5171 30.1683 18.5237 30.8452 19.6751C31.522 20.8265 31.9655 22.1002 32.1503 23.4232Z" fill="#2C2C2C"/>
<path d="M39.3752 22.9641C39.3749 24.5349 39.0654 26.0902 38.4643 27.5411C37.8632 28.9921 36.9824 30.3103 35.8722 31.4204C34.7619 32.5305 33.444 33.4108 31.9937 34.0108C30.5434 34.6109 28.9893 34.919 27.42 34.9176C27.2989 34.9201 27.1778 34.9151 27.0574 34.9026C28.698 34.0649 30.1227 32.8587 31.2201 31.3783C32.3176 29.8979 33.058 28.1835 33.3834 26.3691C33.7089 24.5547 33.6105 22.6895 33.0961 20.9195C32.5817 19.1494 31.6651 17.5225 30.4181 16.166C30.4031 16.151 28.7479 14.0362 28.7073 13.9688C27.6127 12.1397 27.032 10.0487 27.0264 7.91656V7.90586C27.021 6.33004 27.3364 4.76964 27.9535 3.31988C27.9663 3.30704 28.0732 3.05126 28.1406 2.95601C28.5782 2.06501 29.2576 1.31528 30.1009 0.792537C30.9442 0.269798 31.9175 -0.00485142 32.9094 -1.57583e-07C33.3587 -0.00372499 33.8063 0.0546209 34.2396 0.173381C35.4259 0.482119 36.4726 1.18423 37.2089 2.1651C37.3986 2.4634 37.509 2.80527 37.5296 3.15828C37.5319 3.5442 37.3931 3.91764 37.1394 4.20818C37.3899 4.81617 37.5662 5.45222 37.6644 6.10251C37.8018 6.9219 37.6506 7.7636 37.2367 8.48378C36.9596 7.11041 36.2872 5.84817 35.3024 4.85247C35.3024 4.83749 34.6202 4.19534 34.1882 3.75655C33.9391 3.46676 33.622 3.24332 33.2654 3.10623C32.9089 2.96914 32.5238 2.92266 32.1449 2.97098C31.3483 3.18503 30.8544 3.61956 30.4395 5.06652C30.3266 5.58845 30.2681 6.12072 30.2652 6.65474C30.2651 8.00205 30.637 9.32317 31.3398 10.4723C31.8025 11.236 32.4085 11.9029 33.1243 12.4362C33.1243 12.4362 35.0993 13.7922 35.1388 13.835C36.4677 14.955 37.5356 16.3527 38.2674 17.9298C38.9993 19.5069 39.3774 21.2252 39.3752 22.9641Z" fill="#2C2C2C"/>
</g>
<defs>
<clipPath id="clip0_74_47">
<rect width="39.375" height="35" fill="white"/>
</clipPath>
</defs>
</svg>
